<?xml version="1.0" standalone="no"?>
<!DOCTYPE svg PUBLIC "-//W3C//DTD SVG 20010904//EN"
 "http://www.w3.org/TR/2001/REC-SVG-20010904/DTD/svg10.dtd">
<svg version="1.0" xmlns="http://www.w3.org/2000/svg"
 width="711.000000pt" height="473.000000pt" viewBox="0 0 711.000000 473.000000"
 preserveAspectRatio="xMidYMid meet">
<metadata>
Created by potrace 1.16, written by Peter Selinger 2001-2019
</metadata>
<g transform="translate(0.000000,473.000000) scale(0.100000,-0.100000)"
fill="#000000" stroke="none">
<path d="M0 2977 c0 -1350 3 -1756 12 -1765 9 -9 9 -12 0 -12 -9 0 -12 -140
-12 -600 l0 -600 915 0 c603 0 915 3 915 10 0 6 7 10 15 10 19 0 19 24 0 40
-12 10 -16 9 -21 -4 -3 -9 -10 -16 -15 -16 -13 0 -11 28 2 32 12 4 1 38 -12
38 -6 0 -19 -9 -31 -20 -36 -34 -81 -17 -58 21 6 8 5 16 -2 20 -8 5 -6 12 5
24 19 18 23 30 7 20 -15 -10 -12 4 12 46 11 21 25 36 29 33 5 -3 6 2 3 11 -4
8 1 30 9 48 38 81 76 188 71 201 -3 8 -12 17 -20 20 -15 6 -152 -61 -419 -204
-82 -44 -163 -87 -180 -95 -16 -8 -43 -23 -60 -34 -18 -12 -38 -18 -49 -15
-15 5 -18 3 -12 -11 4 -13 2 -16 -9 -11 -10 3 -15 -1 -15 -14 0 -18 -14 -33
-35 -36 -5 -1 -10 11 -10 26 0 16 3 26 6 24 4 -2 23 7 42 20 20 14 37 20 39
14 2 -6 10 -3 17 6 12 14 12 16 -3 10 -10 -4 -16 -1 -16 7 0 10 -3 10 -11 2
-6 -6 -18 -9 -25 -6 -16 6 -19 33 -4 33 6 0 23 11 38 25 20 18 24 27 15 36 -8
8 -15 6 -25 -10 -7 -11 -17 -21 -21 -21 -9 0 -3 53 9 85 6 15 4 16 -14 6 -13
-7 -19 -17 -16 -26 7 -18 -7 -20 -23 -4 -9 9 -11 7 -7 -8 4 -14 -2 -23 -21
-31 -38 -17 -55 -15 -55 8 0 19 4 22 33 24 6 1 15 5 19 10 7 10 19 17 320 184
111 63 211 120 222 127 17 13 16 18 -23 103 -23 49 -41 93 -41 98 0 5 -4 15
-9 23 -7 10 -25 3 -87 -32 -113 -65 -124 -66 -187 -24 -29 19 -82 59 -117 89
-69 58 -357 276 -419 318 -20 14 -68 50 -106 80 -73 59 -78 62 -146 99 -37 20
-52 23 -118 19 -42 -3 -67 -2 -57 2 12 4 15 9 9 13 -15 10 -4 45 16 50 11 3 9
5 -6 6 -21 1 -30 -18 -24 -52 1 -5 -8 -5 -20 -2 -16 5 -20 4 -15 -6 4 -8 1 -6
-8 4 -8 11 -12 25 -9 33 3 8 0 14 -6 14 -6 0 -11 7 -11 15 0 8 -6 15 -14 15
-21 0 -39 -27 -33 -50 3 -11 1 -18 -4 -14 -5 3 -9 17 -10 32 0 18 -3 22 -7 12
-8 -17 -42 -26 -42 -11 0 5 4 13 10 16 5 3 10 16 10 29 0 12 5 27 11 33 9 9 8
16 -5 28 -21 21 -20 28 2 21 20 -7 42 27 42 64 0 10 5 22 10 25 6 4 9 14 8 22
-2 9 2 18 7 19 16 6 107 -164 100 -186 -3 -10 -1 -21 5 -25 7 -4 10 0 8 11 -2
13 7 24 27 34 115 60 321 166 326 168 7 3 73 -98 67 -102 -2 -2 -17 -8 -35
-15 -50 -20 -57 -34 -37 -73 10 -18 18 -37 19 -43 2 -19 30 -70 45 -82 18 -15
115 -84 139 -98 9 -6 44 -29 78 -53 70 -47 83 -50 107 -23 16 17 18 40 17 168
-1 148 -14 314 -26 333 -10 16 -63 11 -107 -10 -23 -11 -45 -20 -49 -20 -8 0
-59 84 -59 98 0 5 24 20 53 32 90 38 478 236 547 278 19 12 40 22 47 22 6 0
25 -21 42 -47 l31 -46 -35 -24 c-32 -22 -34 -25 -23 -51 7 -15 17 -34 23 -42
7 -8 11 -37 11 -63 -2 -57 -4 -55 128 -136 141 -88 153 -94 176 -81 17 9 20
21 20 85 0 74 -35 379 -46 396 -9 16 -63 10 -104 -11 -22 -11 -43 -20 -49 -20
-14 0 -64 91 -55 100 10 10 558 290 566 290 19 0 82 -98 92 -143 l11 -52 32
52 c57 93 221 216 356 269 l48 19 -6 64 c-5 42 -3 66 4 70 6 4 13 22 15 40 3
27 1 31 -13 25 -77 -34 -164 -44 -527 -59 -206 -9 -386 -20 -400 -25 -20 -8
-24 -16 -24 -50 0 -23 5 -50 10 -61 10 -17 4 -22 -52 -48 l-63 -29 -32 37
c-38 42 -53 87 -53 157 0 104 40 169 137 224 29 17 53 35 53 41 0 6 -23 36
-51 67 -74 82 -93 128 -87 217 10 159 111 264 278 291 22 4 40 8 40 10 0 1 -4
13 -9 27 -7 18 -21 26 -66 36 -35 8 -55 17 -53 25 2 7 46 83 98 170 l95 158
50 -8 c28 -4 66 -9 85 -10 19 -1 50 -6 69 -10 l34 -7 -29 36 c-16 21 -35 37
-41 37 -7 0 -13 5 -13 10 0 6 9 10 21 10 12 0 23 8 26 20 3 11 10 17 15 14 5
-3 12 3 15 14 3 12 12 23 22 25 10 3 6 5 -9 6 l-25 2 23 18 c12 11 22 26 22
35 0 9 5 16 10 16 6 0 10 -4 10 -10 0 -5 7 -10 15 -10 8 0 15 5 15 10 0 6 5
10 10 10 7 0 7 -7 0 -20 -5 -11 -15 -29 -20 -40 -8 -15 -7 -20 4 -20 8 0 16 7
20 15 7 18 26 20 26 2 0 -18 -57 -59 -65 -47 -10 17 -28 11 -21 -6 4 -10 -1
-25 -10 -35 -12 -13 -14 -26 -8 -51 4 -18 8 -37 8 -42 1 -16 27 -24 206 -65
179 -42 215 -47 224 -33 3 5 -4 33 -15 63 -13 34 -19 66 -15 87 14 87 94 185
184 224 34 16 75 22 157 25 117 5 168 -3 480 -77 72 -17 163 -36 204 -43 73
-11 73 -11 95 14 11 15 26 33 31 42 9 14 17 15 60 5 28 -6 53 -16 57 -22 4 -6
8 -59 8 -118 0 -60 4 -108 8 -108 4 0 33 9 65 20 31 11 69 20 84 20 16 0 39 9
53 19 20 16 24 27 23 63 -3 72 19 218 32 218 8 0 11 -11 9 -27 -2 -16 -1 -22
2 -15 9 18 44 15 51 -5 3 -10 13 -26 21 -35 8 -10 12 -24 9 -33 -8 -18 15 -20
42 -4 23 15 78 -7 87 -33 4 -15 9 -16 27 -6 20 10 21 10 8 -5 -12 -15 -11 -17
8 -17 11 0 21 5 21 10 0 17 20 11 43 -14 12 -13 39 -28 60 -34 20 -6 51 -22
68 -36 17 -14 40 -26 51 -26 11 0 27 -8 36 -19 10 -10 40 -26 67 -36 108 -38
211 -119 262 -206 21 -36 64 -59 109 -59 36 0 138 42 150 62 12 20 -12 27 -40
13 -38 -20 -43 -12 -22 33 18 35 19 36 27 15 14 -37 25 -27 43 37 9 33 21 60
27 60 5 0 7 -11 3 -25 -4 -18 -2 -25 8 -25 8 0 18 3 21 6 4 4 28 9 54 11 26 2
52 8 58 12 5 5 24 11 40 14 17 3 52 10 78 16 46 10 50 9 73 -16 26 -28 32 -53
11 -53 -19 0 -37 -34 -26 -51 8 -12 11 -12 19 1 8 12 10 8 8 -15 -2 -24 1 -30
17 -30 21 0 23 10 10 77 -10 48 -1 79 32 118 61 73 162 110 298 110 108 0 180
-13 336 -60 162 -49 217 -57 244 -37 17 13 17 17 5 31 -18 23 -53 36 -205 81
-382 110 -503 174 -536 283 -14 49 2 89 66 155 33 35 58 50 101 63 68 19 95
16 246 -32 62 -20 149 -47 193 -60 44 -13 109 -32 145 -43 136 -41 385 -111
396 -111 39 0 61 -99 35 -162 -13 -34 -66 -68 -106 -68 -42 0 -75 -10 -75 -23
0 -6 7 -18 16 -28 9 -10 18 -35 21 -56 4 -31 0 -45 -24 -75 -33 -43 -59 -57
-122 -65 -67 -9 -76 -19 -45 -55 63 -76 77 -138 47 -205 -41 -90 -121 -131
-271 -140 -167 -10 -382 40 -568 134 -109 54 -113 55 -150 42 -51 -17 -218
-17 -272 -1 -24 7 -61 29 -82 48 l-39 35 -6 -38 c-3 -21 -14 -69 -23 -108 -14
-59 -21 -71 -40 -73 -21 -3 -26 -16 -23 -54 2 -12 -5 -18 -18 -18 -24 0 -38
-19 -22 -29 6 -4 9 -15 6 -24 -9 -22 12 -57 34 -57 10 0 24 -6 30 -14 9 -11 1
-14 -41 -20 -29 -3 -77 -6 -105 -6 -29 0 -53 -4 -53 -10 0 -6 50 -10 130 -10
125 0 130 1 130 21 0 21 2 21 238 16 267 -5 305 -12 322 -60 15 -45 14 -47
-39 -47 -107 0 -126 -32 -98 -174 9 -44 22 -108 28 -141 6 -33 29 -134 51
-225 21 -91 59 -253 83 -361 43 -194 79 -303 148 -449 19 -41 35 -76 34 -76
-1 -1 -22 -4 -47 -7 -54 -6 -81 6 -200 92 -47 33 -90 61 -96 61 -6 0 -40 -23
-75 -52 -123 -99 -248 -135 -423 -125 -124 8 -226 36 -328 88 -85 45 -191 136
-236 204 -23 34 -32 41 -41 32 -10 -9 -11 -8 -5 6 6 17 -14 82 -23 73 -3 -2 0
-15 7 -28 11 -22 10 -22 -5 -3 -8 11 -13 25 -10 33 2 7 -7 57 -21 110 -25 94
-27 180 -8 257 5 20 5 20 -11 0 -9 -11 -19 -20 -23 -20 -4 -1 -24 -7 -46 -14
-22 -8 -63 -11 -97 -9 -83 6 -127 43 -152 126 -17 56 -41 83 -57 65 -4 -4 -19
-39 -33 -78 -68 -182 -77 -295 -32 -434 37 -117 57 -141 114 -142 38 -1 42 -2
21 -9 -14 -5 -18 -9 -10 -10 8 -1 2 -6 -15 -10 l-30 -8 28 -1 c18 -1 26 -5 21
-12 -5 -9 6 -10 41 -5 33 5 45 4 40 -3 -3 -6 0 -11 7 -12 7 0 4 -4 -7 -9 -17
-7 -15 -9 13 -9 32 -1 47 -21 15 -21 -9 0 -13 -3 -9 -7 4 -5 35 -8 68 -8 l61
0 18 -50 c24 -70 24 -80 -7 -83 -32 -2 -55 -6 -434 -71 -162 -27 -329 -51
-370 -53 l-75 -3 -14 60 -15 60 -9 -35 c-21 -81 -74 -161 -100 -152 -4 1 -3
-7 4 -19 9 -17 8 -20 -2 -14 -9 6 -10 3 -5 -10 5 -15 4 -16 -9 -5 -15 12 -20
4 -16 -22 0 -5 -6 -8 -15 -8 -12 0 -15 8 -13 34 2 19 0 38 -4 42 -4 4 -7 -8
-8 -27 l-1 -34 -11 32 c-16 43 -24 49 -19 13 3 -18 0 -30 -7 -30 -10 0 -15 23
-15 72 1 13 -5 16 -20 13 -36 -9 -739 -85 -779 -85 -29 0 -64 15 -142 61 -201
120 -252 193 -297 434 -6 33 -13 55 -15 49 -8 -23 51 -363 126 -734 28 -134
49 -246 47 -248 -4 -4 -41 117 -51 168 -4 19 -9 38 -12 43 -2 4 -46 -15 -97
-43 l-93 -50 -74 53 c-41 29 -110 77 -154 107 -44 29 -82 56 -85 59 -3 3 -25
20 -50 36 -25 17 -89 61 -142 98 -55 38 -106 67 -116 65 -33 -7 -20 -163 37
-449 28 -140 59 -312 70 -383 11 -70 22 -130 24 -133 3 -2 26 9 53 25 27 15
131 72 232 126 l182 98 66 -41 c36 -23 68 -41 71 -41 3 0 15 -9 27 -20 11 -10
54 -45 94 -76 46 -35 72 -62 70 -72 -1 -10 0 -21 4 -27 9 -15 29 -128 23 -134
-3 -3 -8 5 -12 17 -10 42 -22 11 -17 -46 7 -81 -32 -170 -57 -131 -6 10 -9 7
-9 -11 l-1 -25 -14 25 c-17 29 -19 76 -5 85 6 3 10 14 9 23 0 9 -10 -3 -21
-28 -12 -25 -32 -67 -45 -93 -12 -27 -23 -53 -23 -58 0 -5 -20 -51 -44 -102
-24 -50 -51 -109 -59 -130 l-16 -37 249 0 249 0 10 38 c127 493 201 807 201
853 0 45 -18 58 -110 79 -30 7 -58 14 -61 16 -10 6 32 142 45 147 7 3 66 -4
131 -15 66 -12 164 -21 217 -22 82 -1 99 -4 111 -19 13 -18 17 -18 133 3 148
27 191 41 114 36 -30 -2 -45 -1 -33 1 12 2 23 11 25 20 2 11 16 17 48 19 l45
3 -40 -13 -40 -12 33 -5 c17 -3 32 -2 32 2 0 4 14 4 30 -1 17 -5 47 -7 68 -4
l37 5 -38 -15 c-21 -7 -54 -17 -73 -21 -76 -14 -19 -17 86 -5 61 8 105 17 99
21 -6 3 7 8 30 11 22 2 41 0 41 -5 0 -10 63 2 70 13 6 10 101 26 190 34 42 3
56 2 40 -4 l-25 -8 25 -1 c37 -1 100 11 100 19 0 4 -12 6 -27 4 -28 -4 -28 -4
-3 5 26 9 74 13 52 4 -29 -11 1 -20 39 -11 28 8 37 13 27 19 -9 6 -5 9 14 9
15 0 30 5 33 10 4 7 -8 8 -37 4 -24 -4 -41 -4 -38 -1 3 3 54 12 114 21 103 15
138 24 105 27 -8 1 -20 1 -28 0 -7 -2 -10 3 -6 9 4 6 14 9 22 6 8 -3 32 -3 53
0 52 8 45 39 -11 48 -39 6 -46 26 -9 26 10 0 21 4 24 9 12 19 238 35 233 16
-1 -5 -13 -9 -25 -7 -14 2 -21 -1 -18 -7 3 -5 0 -11 -6 -14 -7 -3 16 -3 52 -1
46 3 59 1 45 -5 l-20 -10 20 -1 c14 -1 10 -5 -15 -15 l-35 -13 37 -1 c31 -1
35 -4 31 -20 -4 -15 -1 -19 14 -16 42 9 133 12 133 5 0 -4 -39 -11 -87 -15
-126 -10 -137 -20 -23 -20 54 0 96 -2 94 -5 -3 -3 -36 -10 -72 -17 l-67 -12
60 4 c58 4 59 4 30 -9 -16 -8 -24 -15 -17 -15 6 -1 12 -10 12 -21 0 -12 -6
-20 -12 -19 -7 2 -37 -3 -66 -9 -29 -7 -75 -12 -102 -12 -27 0 -51 -4 -55 -10
-3 -5 -18 -9 -33 -9 -22 0 -55 -3 -104 -10 -5 -1 -8 -5 -8 -9 0 -8 110 3 140
14 8 3 47 7 85 10 39 3 81 7 95 9 21 5 22 4 7 -5 -10 -6 -46 -15 -80 -19 l-62
-8 50 -3 50 -2 -50 -9 c-115 -21 -195 -41 -195 -49 0 -16 16 -19 60 -9 23 5
64 6 89 2 l46 -7 -40 -7 c-22 -5 -53 -6 -69 -2 -24 4 -27 3 -16 -8 8 -9 30
-13 59 -12 28 1 13 -3 -39 -12 -47 -8 -118 -15 -157 -16 -40 -1 -70 -5 -68
-10 3 -4 1 -10 -5 -14 -11 -7 -13 5 -4 29 5 12 20 16 62 16 30 0 53 3 49 6 -8
8 -104 9 -137 1 -14 -3 -47 -9 -73 -12 -27 -4 -47 -8 -45 -11 3 -2 40 -14 84
-25 77 -20 126 -21 219 -4 l30 6 -25 -15 c-14 -8 -41 -15 -59 -16 -28 0 -32
-3 -23 -12 7 -7 38 -13 72 -13 33 0 52 -3 43 -6 -22 -8 74 -39 119 -39 29 0
48 23 128 159 14 24 39 64 55 89 52 81 123 206 139 244 22 52 20 86 -9 135
-27 49 -29 48 64 78 45 15 55 15 65 4 7 -8 50 -75 96 -149 45 -74 91 -148 101
-165 61 -97 209 -348 207 -349 -11 -8 -128 -46 -139 -46 -8 0 -27 22 -43 49
-28 48 -54 65 -81 55 -15 -6 -135 -225 -135 -246 0 -9 6 -20 13 -25 16 -13
257 -93 280 -93 26 0 57 37 57 68 0 15 -12 45 -26 65 -14 21 -24 40 -22 41 6
6 132 46 143 46 6 0 26 -26 45 -58 19 -31 71 -117 117 -190 46 -73 83 -135 83
-137 0 -2 23 -40 50 -85 54 -88 60 -110 32 -110 -11 0 -32 -7 -49 -15 -51 -26
-75 -23 -91 9 -23 46 -92 109 -152 137 -63 31 -534 189 -561 189 -22 0 -24 -4
-154 -210 -57 -91 -126 -200 -153 -242 l-50 -78 453 0 452 0 -5 25 -5 26 141
-2 c133 -1 223 -13 284 -37 19 -8 203 -11 573 -12 l545 0 -2 392 -3 393 -32 3
c-21 2 -33 9 -33 18 0 8 -4 14 -10 14 -5 0 -10 11 -10 25 0 14 -4 25 -10 25
-5 0 -10 -7 -10 -16 0 -9 -10 -25 -22 -36 -14 -11 -19 -21 -12 -24 13 -5 6
-54 -7 -54 -5 0 -9 5 -9 10 0 6 -4 10 -10 10 -18 0 -4 -59 18 -79 28 -24 28
-31 -2 -31 -25 0 -36 -16 -36 -56 0 -44 -18 -25 -22 24 -3 30 0 53 9 63 14 17
8 29 -14 29 -10 0 -12 -16 -10 -65 4 -70 -9 -82 -27 -28 -6 18 -15 35 -19 39
-4 5 -6 2 -3 -6 3 -8 2 -22 -4 -30 -17 -27 -22 -2 -10 55 23 111 -5 191 -124
355 -42 58 -104 143 -137 190 -126 176 -168 200 -284 164 l-57 -18 -24 29
c-13 16 -31 44 -41 63 -15 27 -16 34 -4 41 7 5 9 11 5 13 -5 3 -3 3 5 1 13 -3
229 80 356 137 101 46 100 46 143 2 55 -56 298 -391 294 -405 -2 -7 -1 -9 3
-5 7 7 45 -39 119 -140 l31 -44 3 286 c2 258 0 292 -17 356 -24 85 -22 204 3
264 14 34 16 123 16 826 0 679 -2 792 -15 816 -19 37 -19 83 0 90 13 5 15 47
15 289 0 242 -2 284 -15 289 -9 3 -15 19 -15 41 0 24 4 35 15 35 13 0 15 22
15 141 l0 140 -32 -22 c-18 -13 -35 -26 -38 -30 -3 -3 -35 -18 -72 -32 -109
-44 -260 -36 -408 20 -87 34 -162 71 -241 121 l-66 42 -272 0 -271 0 39 -35
c43 -39 68 -106 56 -152 -11 -46 -93 -114 -206 -171 -208 -105 -302 -158 -313
-175 -9 -15 -5 -24 27 -50 20 -18 37 -37 37 -43 0 -9 -81 -54 -99 -54 -7 0
-59 41 -199 155 -9 8 -65 53 -124 100 -60 47 -108 90 -108 95 0 11 73 50 93
50 8 0 32 -14 53 -31 32 -25 46 -30 74 -26 41 6 320 137 403 190 51 33 57 40
57 70 0 22 -8 41 -23 55 -22 21 -32 22 -203 22 l-179 0 -145 -73 c-161 -80
-178 -99 -121 -133 17 -10 31 -24 31 -30 0 -15 -61 -54 -84 -54 -15 0 -101 65
-319 243 l-58 47 -223 0 -223 0 -7 -82 c-3 -46 -7 -99 -9 -118 l-2 -35 80 -3
c123 -3 125 -4 125 -58 l0 -45 -112 6 c-253 13 -535 25 -574 25 -46 0 -55 10
-47 53 5 26 7 27 78 27 106 0 116 10 124 133 l6 97 -147 0 -148 0 7 -47 c3
-27 10 -53 15 -60 7 -8 49 -13 121 -15 l112 -3 0 -29 c0 -25 -5 -31 -30 -37
-30 -7 -513 -29 -637 -29 -65 0 -68 1 -68 24 0 42 24 56 99 56 85 0 101 14
101 88 l0 52 -162 0 -163 0 55 -33 c30 -18 55 -39 55 -46 0 -7 -16 -22 -36
-34 l-36 -21 -53 34 c-58 37 -92 40 -124 11 -12 -10 -73 -51 -136 -90 -63 -40
-149 -96 -190 -126 -41 -30 -79 -54 -83 -54 -21 -2 -67 -44 -67 -62 0 -10 4
-19 8 -19 5 0 17 -8 28 -18 10 -10 27 -21 37 -25 31 -12 17 -32 -44 -60 l-59
-28 -43 29 c-58 39 -77 45 -96 29 -9 -8 -37 -26 -62 -40 -25 -13 -54 -30 -65
-36 -103 -58 -266 -95 -394 -88 -91 4 -188 28 -201 49 -3 5 -8 8 -11 6 -2 -1
-21 8 -41 22 -32 21 -36 29 -31 53 3 16 1 27 -5 27 -6 0 -11 10 -11 21 0 18 5
21 29 17 36 -5 51 26 20 42 -25 14 -24 25 5 57 14 15 23 30 20 35 -3 4 -1 8 5
8 5 0 12 -6 14 -12 4 -8 8 -4 12 10 4 12 12 22 17 22 6 0 7 7 4 16 -6 14 -4
15 9 4 9 -7 12 -16 8 -19 -9 -7 -16 -41 -9 -41 7 0 45 31 65 53 8 9 23 17 32
17 26 0 50 -11 44 -20 -3 -5 0 -12 6 -16 8 -5 9 -3 4 6 -5 8 -3 11 4 9 7 -3
20 -17 29 -32 15 -24 15 -29 2 -37 -8 -5 -11 -12 -8 -16 8 -7 -21 -33 -58 -52
-12 -6 -47 -13 -78 -16 -66 -5 -76 -10 -76 -39 0 -45 14 -52 97 -52 105 0 136
19 129 80 -6 54 9 81 19 34 16 -73 22 -80 52 -67 52 23 223 138 223 151 0 13
-92 87 -108 87 -4 0 -13 5 -20 12 -9 9 -1 18 35 39 l47 28 51 -27 c27 -15 62
-35 76 -45 31 -22 45 -19 119 27 104 66 103 64 96 110 -3 22 -7 50 -9 61 -3
11 -5 25 -6 30 -4 31 -18 37 -47 19 -16 -10 -40 -28 -53 -41 -25 -24 -163 -93
-221 -111 -102 -31 -273 -52 -327 -41 -17 3 -43 18 -59 32 -16 15 -37 27 -47
27 -9 0 -26 5 -36 12 -19 12 -19 13 6 36 23 21 33 24 74 19 49 -6 127 17 214
62 l39 21 -777 0 -777 0 0 -1753z m1057 1153 c67 -15 168 -67 209 -109 44 -45
68 -90 84 -161 7 -30 26 -100 43 -155 16 -55 32 -125 34 -155 8 -89 -43 -265
-74 -253 -7 3 -13 2 -12 -3 3 -19 -1 -34 -11 -34 -5 0 -10 6 -10 14 0 7 -9 35
-21 61 -15 34 -19 57 -14 84 10 57 14 141 7 141 -4 0 -18 -12 -31 -26 -120
-126 -353 -173 -437 -89 -34 34 -30 50 7 24 l31 -22 -7 21 c-5 17 -3 21 9 16
9 -3 16 -16 16 -27 0 -15 3 -18 11 -10 8 8 7 17 -2 32 -12 18 -11 23 4 38 17
17 20 17 46 2 28 -17 29 -16 27 10 -1 14 -5 31 -8 37 -4 6 1 22 12 34 19 22
21 22 45 6 26 -17 28 -15 28 27 0 21 2 21 60 1 58 -19 81 -9 108 49 35 79 20
152 -39 184 -58 33 -170 53 -289 53 -59 0 -103 4 -97 8 6 4 17 18 23 31 10 17
16 20 24 12 18 -18 37 -13 37 9 0 25 -25 37 -44 21 -7 -6 -16 -8 -19 -4 -4 3
-7 1 -7 -7 0 -10 -3 -10 -15 0 -11 9 -19 10 -28 1 -10 -8 -17 -7 -25 1 -9 9
-12 9 -12 -2 -1 -24 -33 -58 -62 -65 -17 -4 -28 -3 -28 3 0 5 9 12 20 15 10 3
22 17 26 31 8 32 -3 47 -17 26 -8 -11 -12 -12 -16 -2 -2 6 -13 12 -23 12 -10
0 -20 -6 -23 -12 -3 -10 -10 -10 -31 2 -15 8 -23 16 -17 18 21 7 11 23 -11 18
-13 -3 -17 -3 -10 0 6 3 12 14 12 24 0 10 6 21 13 24 6 3 -1 2 -18 -1 -29 -6
-30 -6 -11 13 15 15 34 19 83 19 40 0 64 4 67 12 3 7 23 12 46 11 22 0 44 3
48 7 9 10 228 -2 289 -15z m-354 -738 c15 -16 24 -32 20 -37 -5 -4 -3 -5 4 -2
17 10 106 -94 90 -106 -8 -6 -7 -7 4 -4 10 3 29 -8 50 -30 l34 -34 -27 -24
c-16 -13 -35 -28 -44 -33 -11 -6 -14 -16 -10 -29 5 -16 19 -23 54 -28 85 -12
186 -61 235 -114 55 -58 66 -81 101 -196 16 -49 36 -114 47 -143 19 -54 25
-128 11 -134 -5 -1 -20 -32 -34 -68 -14 -35 -30 -66 -35 -67 -13 -5 -53 35
-53 53 0 8 4 13 9 10 5 -4 6 4 3 16 -5 19 -7 20 -10 6 -2 -10 -8 -18 -13 -18
-5 0 -9 -13 -9 -30 0 -16 -4 -30 -10 -30 -5 0 -10 12 -10 26 0 14 -5 35 -11
46 -7 13 -8 23 -1 27 5 3 12 16 16 29 4 12 12 20 17 17 10 -7 11 2 1 27 -6 15
-16 10 -62 -33 -122 -111 -333 -232 -515 -293 -97 -33 -246 -51 -338 -42 -57
7 -67 10 -67 27 0 10 4 19 10 19 5 0 7 -6 4 -13 -7 -18 41 -20 56 -2 6 8 9 18
6 24 -9 13 15 61 29 61 7 0 18 21 25 48 13 45 39 82 59 82 5 0 8 8 6 18 -2 9
-4 23 -4 30 -1 10 -10 12 -31 7 -17 -4 -30 -2 -30 3 0 9 100 24 155 23 20 0
25 2 17 8 -10 6 -5 10 16 14 33 7 183 77 193 90 3 4 18 3 32 -2 22 -8 27 -8
27 4 0 9 -6 12 -15 9 -27 -11 -16 4 16 20 16 8 38 13 47 10 13 -4 14 -3 4 4
-10 7 -7 13 15 27 40 25 120 109 139 147 25 48 22 103 -7 135 -37 39 -80 53
-169 53 -52 0 -80 4 -80 11 0 7 10 9 25 5 14 -4 25 -3 25 0 0 11 -34 33 -51
34 -9 0 -22 7 -29 15 -16 20 -30 19 -30 -1 0 -10 6 -14 15 -10 9 3 19 -3 25
-14 7 -14 7 -20 0 -20 -5 0 -10 3 -10 8 0 4 -19 6 -42 4 -35 -4 -40 -2 -35 13
4 9 7 22 7 30 0 7 9 15 20 18 13 3 18 10 14 21 -8 21 -31 20 -43 -1 -5 -10
-13 -14 -18 -10 -4 5 1 15 12 23 12 9 16 18 10 22 -6 4 -10 16 -10 26 0 11 -6
21 -12 24 -8 2 -13 -5 -13 -19 0 -26 -9 -21 -15 10 -3 16 1 21 16 21 10 0 19
5 19 10 0 6 10 10 22 10 21 0 21 0 2 15 -10 8 -13 15 -7 15 7 0 20 11 28 24
15 22 15 28 1 61 -20 47 -20 49 1 41 10 -4 14 -4 10 0 -8 8 30 32 54 33 8 1
27 -12 42 -27z m5738 -17 c39 -8 99 -27 133 -41 93 -39 103 -40 135 -10 24 23
33 26 69 20 78 -12 86 -32 98 -221 l7 -113 -29 5 c-16 2 -45 7 -64 10 -23 3
-42 14 -55 33 -41 58 -146 153 -192 174 -115 50 -264 72 -327 48 -14 -5 -33
-21 -42 -35 -14 -22 -15 -32 -6 -64 10 -32 20 -41 69 -64 32 -15 130 -47 217
-73 214 -61 258 -77 337 -124 150 -89 228 -247 189 -385 -23 -81 -120 -150
-248 -176 -47 -10 -83 -8 -214 8 -148 19 -163 23 -253 66 -53 26 -105 47 -115
47 -10 0 -29 -13 -43 -30 -25 -29 -27 -29 -92 -23 -55 5 -68 10 -75 27 -4 12
-11 99 -15 194 l-7 172 40 0 c77 0 102 -10 117 -47 18 -42 77 -118 126 -161
54 -47 165 -99 251 -116 182 -37 308 -3 308 83 0 68 -59 101 -322 177 -213 61
-318 105 -385 160 -89 73 -138 194 -113 278 25 85 79 138 179 177 59 23 221
25 322 4z m-322 -2347 c183 -273 275 -402 302 -423 22 -16 45 -35 52 -40 6 -6
26 -16 42 -22 17 -6 39 -14 50 -19 11 -4 28 -6 39 -5 24 3 66 -8 64 -17 -6
-30 45 -59 54 -30 5 13 38 4 38 -11 0 -14 -71 -24 -83 -12 -6 6 -21 11 -34 11
-21 0 -28 10 -24 33 0 4 -14 7 -32 6 -24 0 -27 -2 -13 -8 17 -7 17 -8 2 -24
-10 -9 -29 -17 -43 -17 -20 0 -24 4 -20 20 4 15 0 20 -14 20 -12 0 -19 -7 -19
-20 0 -11 5 -20 10 -20 17 0 11 -30 -7 -37 -10 -4 -22 -11 -26 -17 -6 -8 -10
-7 -14 2 -2 6 -11 12 -20 12 -14 0 -13 -23 3 -82 3 -10 2 -18 -3 -19 -4 0 -28
-2 -52 -4 -46 -3 -68 -16 -57 -34 5 -7 13 -8 25 -2 18 10 45 0 39 -15 -1 -5 8
-11 21 -12 23 -4 24 -3 6 14 -14 14 -15 19 -4 22 8 2 24 8 36 14 17 9 31 7 60
-5 21 -9 49 -18 63 -19 14 -2 24 -9 23 -16 -2 -6 4 -12 12 -12 8 0 15 -4 15
-9 0 -5 -26 -13 -57 -17 -108 -15 -210 -7 -262 20 -14 7 -39 20 -55 27 -29 14
-114 92 -149 137 -48 62 -208 306 -386 589 -18 29 -49 67 -69 84 -34 30 -38
31 -101 26 -36 -4 -77 -9 -91 -12 -22 -6 -30 1 -62 51 -21 31 -38 60 -38 64 0
7 145 76 195 92 42 13 35 11 180 72 72 30 133 54 136 55 3 1 124 -176 268
-391z m-5787 266 c96 -7 97 -7 107 -36 6 -16 8 -35 5 -42 -3 -7 -8 -51 -12
-97 l-7 -84 -15 33 c-8 17 -18 32 -22 32 -5 0 -8 6 -8 14 0 18 -31 26 -109 26
-52 0 -62 3 -57 15 4 10 -1 15 -15 15 -11 0 -17 -4 -14 -10 3 -5 1 -10 -4 -10
-6 0 -11 5 -11 10 0 6 -7 10 -16 10 -8 0 -13 4 -10 9 3 5 -1 12 -10 15 -21 8
-7 28 15 21 21 -6 46 19 35 36 -5 9 -10 7 -19 -5 -11 -14 -13 -10 -13 25 l-1
41 42 -6 c23 -3 86 -9 139 -12z"/>
<path d="M2080 4665 c0 -45 4 -65 13 -65 6 0 49 24 93 53 45 28 90 57 100 64
15 10 -3 12 -93 12 l-113 1 0 -65z"/>
<path d="M6123 4490 c-31 -12 -29 -44 3 -69 51 -40 451 -157 574 -167 121 -11
157 31 75 88 -80 56 -449 158 -565 157 -36 0 -75 -4 -87 -9z"/>
<path d="M2887 4086 c-63 -23 -66 -28 -63 -120 2 -46 7 -89 10 -95 18 -28 119
-62 345 -116 272 -64 283 -65 316 -2 22 41 37 44 111 26 l44 -11 0 -124 c0
-68 3 -124 8 -124 4 0 8 65 10 145 l2 144 -42 11 c-74 19 -78 21 -78 37 0 8 7
27 16 43 10 15 14 34 11 43 -4 10 -92 35 -279 80 -308 74 -357 82 -411 63z"/>
<path d="M6149 3957 c-59 -32 -100 -92 -107 -156 -6 -63 9 -99 52 -129 67 -46
173 -39 238 16 36 31 78 114 78 157 0 107 -149 171 -261 112z"/>
<path d="M1970 3783 c-35 -13 -60 -46 -53 -71 3 -14 6 -39 7 -55 1 -28 5 -31
51 -42 112 -26 198 -92 249 -193 14 -27 41 -105 60 -173 55 -190 39 -173 156
-166 54 3 116 13 137 22 99 42 140 135 93 213 -26 43 -40 47 -97 28 -25 -9
-76 -16 -111 -16 -111 0 -155 46 -139 147 12 72 81 113 192 113 82 0 133 -20
194 -76 77 -69 112 -152 126 -299 10 -111 12 -113 52 -112 19 1 37 -4 41 -10
4 -6 26 -19 49 -28 23 -9 43 -25 46 -36 3 -11 14 -19 25 -19 22 0 36 -13 25
-24 -3 -3 -8 -17 -9 -31 -2 -17 2 -25 14 -26 51 -4 64 -8 81 -23 22 -20 28
-20 47 -1 13 13 99 43 140 49 25 4 75 59 64 70 -6 6 -10 65 -10 136 l0 127
-56 13 c-31 8 -58 20 -61 28 -3 7 4 31 16 53 27 47 17 72 -31 88 -29 9 -190
50 -1063 271 -205 51 -209 52 -235 43z"/>
<path d="M1836 3340 c-47 -14 -66 -38 -55 -67 5 -13 9 -50 9 -82 0 -66 12 -82
77 -105 43 -15 87 -18 213 -17 100 2 103 4 89 73 -28 139 -108 209 -238 207
-36 0 -79 -5 -95 -9z"/>
<path d="M5367 3275 c-3 -11 -9 -38 -12 -60 -14 -83 -39 -150 -64 -172 -14
-13 -20 -23 -13 -23 23 0 12 -18 -15 -25 l-28 -7 25 -11 c22 -9 23 -11 6 -14
-14 -4 -17 -11 -12 -34 4 -21 1 -31 -12 -38 -16 -9 -15 -10 3 -16 11 -4 31
-11 45 -17 41 -17 110 -37 110 -32 0 3 -9 14 -19 26 -19 20 -19 21 0 41 14 15
18 30 14 58 -3 21 2 53 11 74 8 20 13 39 10 43 -2 4 -7 27 -10 52 -13 97 -33
175 -39 155z"/>
<path d="M3786 3168 c-2 -7 -11 -35 -21 -61 -9 -26 -14 -54 -11 -63 3 -9 -1
-17 -12 -21 -26 -10 -49 -36 -54 -58 -2 -14 -11 -20 -28 -20 -32 0 -38 -18 -8
-26 22 -5 23 -5 3 -17 -11 -6 -15 -12 -10 -12 6 -1 -6 -8 -25 -15 -19 -7 -27
-14 -17 -14 21 -1 65 -43 50 -48 -15 -5 -4 -43 12 -43 7 0 15 -9 18 -20 3 -13
14 -20 30 -20 22 0 151 21 215 35 18 5 26 -2 43 -39 15 -29 27 -43 38 -41 9 2
23 4 31 4 13 1 13 2 0 11 -8 5 -13 10 -10 11 3 0 12 2 20 4 8 1 31 17 49 35
19 17 51 40 71 50 41 21 153 49 203 51 25 1 27 3 9 6 -19 4 -21 7 -11 19 12
15 85 20 91 5 2 -5 19 -6 38 -3 29 4 32 6 15 13 -11 4 -41 8 -66 8 -43 1 -47
3 -53 31 -3 18 -15 34 -29 41 -12 6 -23 18 -24 27 -2 26 -22 72 -31 72 -4 0
-14 -17 -21 -37 -12 -32 -15 -35 -26 -20 -15 21 -25 22 -25 2 0 -8 -4 -15 -10
-15 -5 0 -10 -9 -10 -20 0 -25 -9 -25 -26 -2 -9 12 -13 13 -14 4 0 -8 -8 -25
-19 -38 l-19 -24 -15 23 -16 22 6 -24 c9 -36 -15 -43 -58 -15 -21 13 -48 24
-58 24 -14 0 -34 21 -62 63 -46 67 -102 134 -131 155 -15 11 -19 11 -22 0z"/>
<path d="M5178 2705 c-28 -15 -50 -57 -93 -170 -24 -62 -26 -79 -21 -150 3
-44 9 -97 12 -117 7 -38 7 -38 58 -39 29 -1 39 -4 24 -6 -40 -6 -34 -19 8 -19
19 0 38 -5 42 -10 4 -6 16 -16 27 -22 18 -10 16 -12 -15 -13 -19 0 -46 -5 -60
-9 -15 -5 3 -6 43 -2 47 3 67 1 67 -7 0 -6 -17 -12 -37 -12 -21 -1 -51 -5 -68
-10 -20 -5 -7 -6 40 -3 51 3 64 2 48 -6 -35 -15 -27 -21 17 -14 27 4 40 3 40
-5 0 -6 -6 -11 -14 -11 -8 0 -18 -5 -21 -10 -4 -6 -3 -10 2 -9 4 1 19 0 33 -1
21 -2 20 -4 -10 -10 l-35 -7 37 -2 c38 -1 65 -21 29 -21 -11 0 -23 -5 -27 -11
-3 -6 -20 -17 -38 -25 -29 -13 -27 -13 38 -9 68 4 69 4 49 -14 -11 -11 -29
-21 -39 -23 -13 -3 -7 -8 21 -16 117 -34 206 7 241 111 13 39 15 75 11 171
-13 317 -139 516 -327 515 -30 0 -67 -6 -82 -14z"/>
<path d="M2835 2574 c-11 -3 -37 -12 -57 -21 -29 -12 -37 -21 -34 -37 2 -12
-5 -55 -15 -96 -19 -73 -45 -232 -54 -319 l-5 -43 45 6 c48 8 85 1 85 -15 0
-5 -9 -9 -19 -9 -11 0 -23 -4 -26 -10 -4 -6 11 -7 39 -4 46 7 47 6 50 -28 1
-7 8 -16 16 -20 10 -4 5 -9 -17 -13 -49 -11 -40 -26 12 -18 31 4 45 2 45 -6 0
-6 -8 -11 -17 -11 -10 0 -25 -5 -33 -11 -11 -7 -3 -9 30 -4 41 5 43 5 26 -9
-22 -18 -13 -36 17 -36 20 -1 21 -2 5 -14 -10 -7 -15 -16 -11 -19 3 -4 1 -7
-5 -7 -7 0 -12 -5 -12 -11 0 -6 9 -8 20 -4 15 5 18 3 14 -9 -3 -8 -13 -17 -22
-20 -13 -3 -12 -4 3 -4 27 1 56 -12 49 -23 -3 -5 -13 -9 -22 -9 -11 0 -18 -8
-18 -21 0 -20 4 -21 52 -16 92 10 159 57 205 147 54 106 26 405 -52 561 -28
57 -76 107 -129 134 -31 16 -130 27 -165 19z"/>
<path d="M3490 2550 c-14 -9 -7 -14 13 -11 5 1 6 -2 3 -7 -3 -5 9 -27 27 -48
82 -97 122 -197 133 -330 5 -72 -7 -266 -22 -343 -6 -31 -6 -31 27 -25 108 18
141 27 160 43 l22 18 -32 119 c-18 65 -58 205 -88 309 -30 105 -57 200 -60
212 -3 12 -17 34 -30 48 -22 21 -35 25 -82 25 -31 0 -63 -5 -71 -10z"/>
<path d="M3830 1011 c0 -44 -17 -54 -85 -46 -34 4 -36 3 -10 -4 l30 -8 -29 -4
c-20 -3 -30 -10 -32 -26 -3 -17 0 -20 16 -16 11 3 20 8 20 12 0 11 60 33 74
28 8 -3 12 -15 9 -31 -4 -20 -10 -25 -27 -21 -29 6 -89 -8 -94 -23 -2 -7 6
-12 20 -13 23 -1 23 -1 -2 -8 -28 -8 -35 -42 -10 -48 12 -4 12 -3 2 5 -10 7
-1 11 30 17 24 4 51 9 61 11 19 4 21 -4 7 -26 -7 -12 -12 -12 -22 -2 -16 16
-28 15 -28 -2 0 -8 8 -17 18 -19 15 -4 15 -5 0 -6 -9 0 -19 3 -22 7 -7 12 -66
2 -66 -10 0 -5 15 -7 33 -4 l32 5 -31 -11 c-24 -7 -34 -19 -40 -42 -19 -79
-22 -79 -23 0 l-1 82 -107 16 c-60 9 -144 21 -187 26 -114 14 -119 10 -140
-127 -22 -151 -39 -303 -34 -309 3 -2 35 9 72 26 98 45 170 61 271 61 106 1
192 -19 290 -66 169 -82 276 -214 339 -417 5 -16 19 -18 106 -18 l100 0 -115
230 -115 230 36 15 c94 39 144 39 144 0 0 -7 9 -24 21 -39 29 -37 61 -34 97
12 43 54 142 203 142 212 0 23 -39 38 -174 65 -157 31 -178 30 -184 -15 -2
-12 4 -43 13 -67 10 -24 15 -47 12 -50 -10 -10 -138 -53 -145 -49 -4 2 -63
117 -132 255 -68 138 -128 251 -132 251 -4 0 -8 -17 -8 -39z"/>
<path d="M3285 231 c-42 -10 -103 -52 -151 -102 -38 -41 -84 -108 -84 -123 0
-3 133 -6 295 -6 209 0 295 3 295 11 0 22 -52 115 -83 148 -65 68 -171 96
-272 72z"/>
</g>
</svg>
