<svg width="29" height="19" viewBox="0 0 29 19" fill="none" xmlns="http://www.w3.org/2000/svg">
<path d="M5.79095 9.53125C5.79095 9.27432 5.89302 9.02792 6.07469 8.84624C6.25637 8.66456 6.50278 8.5625 6.7597 8.5625H8.6972V6.625C8.6972 6.36807 8.79927 6.12167 8.98094 5.93999C9.16262 5.75831 9.40903 5.65625 9.66595 5.65625C9.92288 5.65625 10.1693 5.75831 10.351 5.93999C10.5326 6.12167 10.6347 6.36807 10.6347 6.625V8.5625H12.5722C12.8291 8.5625 13.0755 8.66456 13.2572 8.84624C13.4389 9.02792 13.541 9.27432 13.541 9.53125C13.541 9.78818 13.4389 10.0346 13.2572 10.2163C13.0755 10.3979 12.8291 10.5 12.5722 10.5H10.6347V12.4375C10.6347 12.6944 10.5326 12.9408 10.351 13.1225C10.1693 13.3042 9.92288 13.4062 9.66595 13.4062C9.40903 13.4062 9.16262 13.3042 8.98094 13.1225C8.79927 12.9408 8.6972 12.6944 8.6972 12.4375V10.5H6.7597C6.50278 10.5 6.25637 10.3979 6.07469 10.2163C5.89302 10.0346 5.79095 9.78818 5.79095 9.53125ZM20.3125 12.4375C20.3125 12.9514 20.1084 13.4442 19.745 13.8075C19.3817 14.1709 18.8889 14.375 18.375 14.375C17.8612 14.375 17.3683 14.1709 17.005 13.8075C16.6416 13.4442 16.4375 12.9514 16.4375 12.4375C16.4375 11.9236 16.6416 11.4308 17.005 11.0675C17.3683 10.7041 17.8612 10.5 18.375 10.5C18.8889 10.5 19.3817 10.7041 19.745 11.0675C20.1084 11.4308 20.3125 11.9236 20.3125 12.4375ZM20.3125 8.5625C20.8264 8.5625 21.3192 8.35837 21.6825 7.99502C22.0459 7.63167 22.25 7.13886 22.25 6.625C22.25 6.11114 22.0459 5.61833 21.6825 5.25498C21.3192 4.89163 20.8264 4.6875 20.3125 4.6875C19.7987 4.6875 19.3058 4.89163 18.9425 5.25498C18.5791 5.61833 18.375 6.11114 18.375 6.625C18.375 7.13886 18.5791 7.63167 18.9425 7.99502C19.3058 8.35837 19.7987 8.5625 20.3125 8.5625ZM0.939453 9.53125C0.939453 7.21889 1.85803 5.00125 3.49312 3.36616C5.1282 1.73108 7.34585 0.8125 9.6582 0.8125H19.3612C21.6736 0.8125 23.8912 1.73108 25.5263 3.36616C27.1614 5.00125 28.08 7.21889 28.08 9.53125C28.08 11.8436 27.1614 14.0613 25.5263 15.6963C23.8912 17.3314 21.6736 18.25 19.3612 18.25H9.6582C7.34585 18.25 5.1282 17.3314 3.49312 15.6963C1.85803 14.0613 0.939453 11.8436 0.939453 9.53125ZM9.6582 2.75C7.8597 2.75 6.13487 3.46445 4.86314 4.73618C3.5914 6.00791 2.87695 7.73275 2.87695 9.53125C2.87695 11.3297 3.5914 13.0546 4.86314 14.3263C6.13487 15.598 7.8597 16.3125 9.6582 16.3125H19.3612C21.1597 16.3125 22.8845 15.598 24.1563 14.3263C25.428 13.0546 26.1425 11.3297 26.1425 9.53125C26.1425 7.73275 25.428 6.00791 24.1563 4.73618C22.8845 3.46445 21.1597 2.75 19.3612 2.75H9.6582Z" fill="#054D54"/>
</svg>
