<svg width="25" height="18" viewBox="0 0 25 18" fill="none" xmlns="http://www.w3.org/2000/svg">
<path d="M8.6251 0.199997C6.36413 0.199997 4.19576 1.09816 2.59701 2.69691C0.998265 4.29566 0.100098 6.46403 0.100098 8.725C0.100098 10.986 0.998265 13.1543 2.59701 14.7531C4.19576 16.3518 6.36413 17.25 8.6251 17.25H16.3751C18.6361 17.25 20.8044 16.3518 22.4032 14.7531C24.0019 13.1543 24.9001 10.986 24.9001 8.725C24.9001 6.46403 24.0019 4.29566 22.4032 2.69691C20.8044 1.09816 18.6361 0.199997 16.3751 0.199997H8.6251ZM6.3001 5.625C6.3001 5.41945 6.38175 5.22233 6.52709 5.07699C6.67243 4.93165 6.86955 4.85 7.0751 4.85C7.28064 4.85 7.47776 4.93165 7.62311 5.07699C7.76845 5.22233 7.8501 5.41945 7.8501 5.625V7.95H10.1751C10.3806 7.95 10.5778 8.03165 10.7231 8.17699C10.8684 8.32233 10.9501 8.51945 10.9501 8.725C10.9501 8.93054 10.8684 9.12766 10.7231 9.27301C10.5778 9.41835 10.3806 9.5 10.1751 9.5H7.8501V11.825C7.8501 12.0305 7.76845 12.2277 7.62311 12.373C7.47776 12.5183 7.28064 12.6 7.0751 12.6C6.86955 12.6 6.67243 12.5183 6.52709 12.373C6.38175 12.2277 6.3001 12.0305 6.3001 11.825V9.5H3.9751C3.76955 9.5 3.57243 9.41835 3.42709 9.27301C3.28175 9.12766 3.2001 8.93054 3.2001 8.725C3.2001 8.51945 3.28175 8.32233 3.42709 8.17699C3.57243 8.03165 3.76955 7.95 3.9751 7.95H6.3001V5.625ZM20.2501 6.4C20.2501 6.81108 20.0868 7.20533 19.7961 7.49601C19.5054 7.78669 19.1112 7.95 18.7001 7.95C18.289 7.95 17.8948 7.78669 17.6041 7.49601C17.3134 7.20533 17.1501 6.81108 17.1501 6.4C17.1501 5.98891 17.3134 5.59466 17.6041 5.30398C17.8948 5.0133 18.289 4.85 18.7001 4.85C19.1112 4.85 19.5054 5.0133 19.7961 5.30398C20.0868 5.59466 20.2501 5.98891 20.2501 6.4ZM15.6001 12.6C15.189 12.6 14.7948 12.4367 14.5041 12.146C14.2134 11.8553 14.0501 11.4611 14.0501 11.05C14.0501 10.6389 14.2134 10.2447 14.5041 9.95398C14.7948 9.6633 15.189 9.5 15.6001 9.5C16.0112 9.5 16.4054 9.6633 16.6961 9.95398C16.9868 10.2447 17.1501 10.6389 17.1501 11.05C17.1501 11.4611 16.9868 11.8553 16.6961 12.146C16.4054 12.4367 16.0112 12.6 15.6001 12.6Z" fill="#054D54"/>
</svg>
