<svg width="19" height="22" viewBox="0 0 19 22" fill="none" xmlns="http://www.w3.org/2000/svg">
<path d="M0.344276 8.56905L8.5693 0.344025C8.78964 0.123746 9.08846 0 9.40002 0C9.71159 0 10.0104 0.123746 10.2308 0.344025L18.4558 8.56905C18.6761 8.78935 18.8 9.08817 18.8 9.39977V20.6634C18.8 20.975 18.6763 21.2739 18.4559 21.4942C18.2355 21.7146 17.9367 21.8384 17.625 21.8384H11.75V13.6133H7.05002V21.8384H1.175C0.863373 21.8384 0.564506 21.7146 0.344151 21.4942C0.123795 21.2739 0 20.975 0 20.6634V9.39977C6.65491e-05 9.08817 0.123905 8.78935 0.344276 8.56905Z" fill="#219653"/>
</svg>
