<svg width="25" height="25" viewBox="0 0 25 25" fill="none" xmlns="http://www.w3.org/2000/svg">
<path d="M6.45295 1.23972C7.51851 0.432732 8.81932 -0.0025198 10.156 0.00069009C10.6176 -0.00966153 11.0744 0.0965912 11.484 0.309617C11.8937 0.522642 12.243 0.835557 12.4997 1.21941C12.7563 0.835557 13.1056 0.522642 13.5153 0.309617C13.9249 0.0965912 14.3817 -0.00966153 14.8433 0.00069009C16.18 -0.0025198 17.4808 0.432732 18.5464 1.23972C19.3667 1.8772 19.9994 2.75999 20.2229 3.82715C20.7354 3.86621 21.2041 4.0787 21.5978 4.39901C22.1947 4.88337 22.6291 5.60991 22.9025 6.37864C23.3306 7.57392 23.4462 9.09731 23.0025 10.3942C23.115 10.4473 23.2259 10.5098 23.3337 10.5816C23.7634 10.8676 24.09 11.2769 24.3306 11.7597C24.804 12.705 24.9993 14.0237 24.9993 15.6253C24.9993 17.408 24.3196 18.6049 23.4572 19.3439C22.9802 19.7528 22.4174 20.0492 21.8103 20.2111C21.6541 21.0829 21.2166 22.0923 20.5307 22.9485C19.6401 24.0657 18.2589 25 16.4058 25C14.9371 25 13.7684 24.1875 13.009 23.3907C12.8275 23.2004 12.6574 22.9995 12.4997 22.7891C12.3419 22.9996 12.1719 23.2004 11.9903 23.3907C11.2309 24.1875 10.0638 25 8.59351 25C6.74044 25 5.36079 24.0657 4.46863 22.9485C3.82764 22.1525 3.38862 21.2134 3.18897 20.2111C2.58193 20.0492 2.01909 19.7528 1.54214 19.3439C0.679669 18.6049 0 17.4065 0 15.6253C0 14.0237 0.19687 12.7035 0.668732 11.7597C0.90935 11.2769 1.2359 10.8691 1.66558 10.5801C1.7711 10.5102 1.88184 10.4486 1.99682 10.3957C1.55308 9.09575 1.6687 7.57392 2.09682 6.37864C2.37025 5.60991 2.80461 4.88337 3.40147 4.39901C3.79521 4.0787 4.26395 3.86777 4.77643 3.82715C5.00142 2.75999 5.63422 1.8772 6.45451 1.23972H6.45295ZM11.7184 3.90683V3.89121L11.7153 3.81308C11.6923 3.40576 11.6113 3.0038 11.4747 2.61937C11.3774 2.32916 11.2119 2.06658 10.9919 1.85376C10.7611 1.6528 10.4616 1.54869 10.156 1.56315C9.16685 1.55976 8.20359 1.87901 7.4123 2.4725C6.68732 3.03654 6.24983 3.80059 6.24983 4.68806C6.24973 4.81178 6.22026 4.93371 6.16382 5.04381C6.10739 5.15391 6.02561 5.24904 5.92523 5.32135C5.82484 5.39367 5.70871 5.4411 5.58641 5.45976C5.4641 5.47842 5.33911 5.46776 5.22173 5.42867C4.92799 5.33179 4.6655 5.38648 4.38582 5.61147C4.07958 5.86147 3.78115 6.3052 3.56709 6.90362C3.13116 8.12547 3.17647 9.60511 3.7749 10.5051C3.86036 10.6333 3.90602 10.7838 3.90614 10.9379H5.07798C6.01036 10.9379 6.90455 11.3083 7.56384 11.9676C8.22313 12.6269 8.59351 13.521 8.59351 14.4534V14.9768C9.11476 15.1611 9.55408 15.5238 9.83382 16.0006C10.1136 16.4775 10.2157 17.0379 10.1222 17.5828C10.0287 18.1277 9.74561 18.622 9.32291 18.9784C8.90022 19.3347 8.36515 19.5302 7.81228 19.5302C7.25942 19.5302 6.72435 19.3347 6.30165 18.9784C5.87896 18.622 5.59584 18.1277 5.50235 17.5828C5.40886 17.0379 5.51101 16.4775 5.79075 16.0006C6.07049 15.5238 6.50981 15.1611 7.03106 14.9768V14.4534C7.03106 13.3753 6.15608 12.5003 5.07798 12.5003H2.34369C2.25028 12.5002 2.15767 12.4833 2.07026 12.4503L2.06557 12.4597C1.7562 13.0769 1.56246 14.1019 1.56246 15.6253C1.56246 16.9674 2.05463 17.7236 2.5593 18.1564C3.10148 18.6221 3.70302 18.7502 3.90614 18.7502C4.11334 18.7502 4.31205 18.8325 4.45855 18.979C4.60506 19.1255 4.68737 19.3242 4.68737 19.5314C4.68737 20.1064 4.99986 21.111 5.68734 21.9735C6.35764 22.8094 7.32167 23.4375 8.59351 23.4375C9.46849 23.4375 10.2528 22.9485 10.8591 22.3126C11.1575 22.0001 11.3903 21.6767 11.5419 21.411C11.6109 21.2932 11.6699 21.1699 11.7184 21.0423V8.5942H10.0232C9.83887 9.11545 9.47625 9.55476 8.99938 9.83451C8.52251 10.1142 7.96209 10.2164 7.41719 10.1229C6.87229 10.0294 6.37798 9.7463 6.02163 9.3236C5.66528 8.90091 5.46983 8.36584 5.46983 7.81297C5.46983 7.26011 5.66528 6.72504 6.02163 6.30234C6.37798 5.87965 6.87229 5.59653 7.41719 5.50304C7.96209 5.40955 8.52251 5.5117 8.99938 5.79144C9.47625 6.07118 9.83887 6.5105 10.0232 7.03175H11.7184V3.90683ZM13.2809 19.5298V21.0407C13.3294 21.1683 13.3885 21.2917 13.4574 21.4095C13.6106 21.6751 13.8418 21.9985 14.1387 22.311C14.7465 22.9469 15.5324 23.436 16.4058 23.436C17.6776 23.436 18.6417 22.8079 19.312 21.972C19.9994 21.1095 20.3119 20.1048 20.3119 19.5298C20.3119 19.3226 20.3942 19.1239 20.5408 18.9774C20.6873 18.8309 20.886 18.7486 21.0932 18.7486C21.2963 18.7486 21.8978 18.6205 22.44 18.1549C22.9447 17.7221 23.4369 16.9658 23.4369 15.6237C23.4369 14.1003 23.2415 13.0769 22.9337 12.4582C22.8308 12.2278 22.6691 12.0284 22.465 11.88C22.2891 11.7676 22.0831 11.7114 21.8744 11.7191C21.7331 11.719 21.5944 11.6806 21.4732 11.608C21.352 11.5354 21.2528 11.4312 21.1861 11.3066C21.1194 11.182 21.0877 11.0417 21.0945 10.9006C21.1012 10.7594 21.1461 10.6227 21.2244 10.5051C21.8244 9.60511 21.8681 8.12547 21.4322 6.90362C21.2182 6.3052 20.9197 5.8599 20.6135 5.61147C20.3338 5.38648 20.0713 5.33023 19.7776 5.42867C19.6602 5.46776 19.5352 5.47842 19.4129 5.45976C19.2906 5.4411 19.1745 5.39367 19.0741 5.32135C18.9737 5.24904 18.8919 5.15391 18.8355 5.04381C18.7791 4.93371 18.7496 4.81178 18.7495 4.68806C18.7495 3.80059 18.312 3.03654 17.5855 2.4725C16.7946 1.87933 15.8319 1.5601 14.8433 1.56315C14.5377 1.54869 14.2382 1.6528 14.0074 1.85376C13.7868 2.06633 13.6206 2.32895 13.5231 2.61937C13.3743 3.02749 13.2925 3.45698 13.2809 3.89121V17.9689H14.4527C15.5308 17.9689 16.4058 17.094 16.4058 16.0159V13.1488C15.8846 12.9645 15.4452 12.6019 15.1655 12.125C14.8858 11.6481 14.7836 11.0877 14.8771 10.5428C14.9706 9.99789 15.2537 9.50358 15.6764 9.14723C16.0991 8.79088 16.6342 8.59543 17.187 8.59543C17.7399 8.59543 18.275 8.79088 18.6977 9.14723C19.1204 9.50358 19.4035 9.99789 19.497 10.5428C19.5904 11.0877 19.4883 11.6481 19.2086 12.125C18.9288 12.6019 18.4895 12.9645 17.9683 13.1488V16.0159C17.9683 16.9482 17.5979 17.8424 16.9386 18.5017C16.2793 19.161 15.3851 19.5314 14.4527 19.5314H13.2809V19.5298ZM7.03106 7.81297C7.03106 8.02017 7.11336 8.21888 7.25987 8.36539C7.40638 8.51189 7.60509 8.5942 7.81228 8.5942C8.01948 8.5942 8.21819 8.51189 8.3647 8.36539C8.5112 8.21888 8.59351 8.02017 8.59351 7.81297C8.59351 7.60578 8.5112 7.40707 8.3647 7.26056C8.21819 7.11405 8.01948 7.03175 7.81228 7.03175C7.60509 7.03175 7.40638 7.11405 7.25987 7.26056C7.11336 7.40707 7.03106 7.60578 7.03106 7.81297ZM17.187 11.7191C17.3942 11.7191 17.5929 11.6368 17.7394 11.4903C17.8859 11.3438 17.9683 11.1451 17.9683 10.9379C17.9683 10.7307 17.8859 10.532 17.7394 10.3855C17.5929 10.239 17.3942 10.1567 17.187 10.1567C16.9798 10.1567 16.7811 10.239 16.6346 10.3855C16.4881 10.532 16.4058 10.7307 16.4058 10.9379C16.4058 11.1451 16.4881 11.3438 16.6346 11.4903C16.7811 11.6368 16.9798 11.7191 17.187 11.7191ZM7.81228 16.4065C7.60509 16.4065 7.40638 16.4888 7.25987 16.6353C7.11336 16.7818 7.03106 16.9805 7.03106 17.1877C7.03106 17.3949 7.11336 17.5936 7.25987 17.7401C7.40638 17.8866 7.60509 17.9689 7.81228 17.9689C8.01948 17.9689 8.21819 17.8866 8.3647 17.7401C8.5112 17.5936 8.59351 17.3949 8.59351 17.1877C8.59351 16.9805 8.5112 16.7818 8.3647 16.6353C8.21819 16.4888 8.01948 16.4065 7.81228 16.4065Z" fill="#054D54"/>
</svg>
