<svg width="18" height="24" viewBox="0 0 18 24" fill="none" xmlns="http://www.w3.org/2000/svg">
<path d="M3.23457 0.932566C3.31122 0.664228 3.4731 0.428115 3.69576 0.259882C3.91842 0.0916488 4.18978 0.000430172 4.46885 4.46292e-07H12.9562C13.164 -0.000172663 13.3687 0.0500163 13.5529 0.14627C13.737 0.242523 13.8951 0.381972 14.0136 0.552677C14.132 0.723381 14.2074 0.920255 14.2331 1.12644C14.2588 1.33262 14.2342 1.54197 14.1614 1.73656L12.2414 6.8571H16.0093C16.2605 6.85718 16.5061 6.9308 16.7159 7.06888C16.9256 7.20696 17.0904 7.40345 17.1897 7.63409C17.2891 7.86473 17.3187 8.11942 17.275 8.36672C17.2313 8.61401 17.1161 8.84309 16.9436 9.02566L3.05629 23.7307C2.92625 23.8687 2.75414 23.9597 2.56689 23.9894C2.37963 24.0191 2.1878 23.9859 2.02143 23.895C1.85505 23.8041 1.72352 23.6605 1.64742 23.4869C1.57132 23.3132 1.55495 23.1192 1.60087 22.9353L3.90657 13.7142H1.28716C1.08804 13.7144 0.891587 13.6684 0.71329 13.5797C0.534994 13.4911 0.379726 13.3622 0.259723 13.2033C0.13972 13.0445 0.0582633 12.8599 0.0217734 12.6641C-0.0147165 12.4684 -0.00524244 12.2668 0.0494491 12.0754L3.23457 0.932566ZM4.79456 1.71428L1.85287 11.9999H5.0037C5.1339 12 5.26238 12.0297 5.37939 12.0868C5.49639 12.1439 5.59886 12.2269 5.67899 12.3295C5.75913 12.4321 5.81484 12.5516 5.8419 12.679C5.86895 12.8063 5.86663 12.9382 5.83513 13.0645L4.06085 20.1719L15.0151 8.57137H11.0037C10.8651 8.57137 10.7286 8.53778 10.6059 8.47347C10.4831 8.40916 10.3778 8.31606 10.2989 8.20213C10.2201 8.0882 10.17 7.95685 10.153 7.81933C10.136 7.68181 10.1526 7.54222 10.2014 7.41252L12.3391 1.71428H4.79285H4.79456Z" fill="#054D54"/>
</svg>
