<svg width="25" height="21" viewBox="0 0 25 21" fill="none" xmlns="http://www.w3.org/2000/svg">
<path fill-rule="evenodd" clip-rule="evenodd" d="M23.4688 0.375H14.1875L13.5969 0.628125L12.5 1.70812L11.4031 0.628125L10.8125 0.375H1.53125L0.6875 1.21875V18.0938L1.53125 18.9375H10.4581L11.9094 20.3719H13.0906L14.5419 18.9375H23.4688L24.3125 18.0938V1.21875L23.4688 0.375ZM11.6562 17.79L11.3525 17.5031L10.8125 17.25H2.375V2.0625H10.4581L11.7069 3.31125L11.6562 17.79ZM22.625 17.25H14.1875L13.5969 17.5031L13.3606 17.7225V3.24375L14.5419 2.0625H22.625V17.25ZM9.125 5.4375H4.0625V7.125H9.125V5.4375ZM9.125 12.1875H4.0625V13.875H9.125V12.1875ZM4.0625 8.8125H9.125V10.5H4.0625V8.8125ZM20.9375 5.4375H15.875V7.125H20.9375V5.4375ZM15.875 8.8125H20.9375V10.5H15.875V8.8125ZM15.875 12.1875H20.9375V13.875H15.875V12.1875Z" fill="#054D54"/>
</svg>
